<?xml version="1.0" encoding="UTF-8" standalone="no"?>
<svg
   version="1.1"
   preserveAspectRatio="none"
   x="0px"
   y="0px"
   width="672.14972"
   height="237.12857"
   viewBox="0 0 672.14972 237.12857"
   id="svg2"
   inkscape:version="1.1.1 (3bf5ae0d25, 2021-09-20)"
   sodipodi:docname="Hackspace_logo_5_White_Background.svg"
   inkscape:export-filename="C:\1_MBR\Hackspace\Graphics\Hackspace_Graphics\Hackspace_logo_4.png"
   inkscape:export-xdpi="300"
   inkscape:export-ydpi="300"
   xmlns:inkscape="http://www.inkscape.org/namespaces/inkscape"
   xmlns:sodipodi="http://sodipodi.sourceforge.net/DTD/sodipodi-0.dtd"
   xmlns:xlink="http://www.w3.org/1999/xlink"
   xmlns="http://www.w3.org/2000/svg"
   xmlns:svg="http://www.w3.org/2000/svg"
   xmlns:rdf="http://www.w3.org/1999/02/22-rdf-syntax-ns#"
   xmlns:cc="http://creativecommons.org/ns#"
   xmlns:dc="http://purl.org/dc/elements/1.1/">
  <metadata
     id="metadata29">
    <rdf:RDF>
      <cc:Work
         rdf:about="">
        <dc:format>image/svg+xml</dc:format>
        <dc:type
           rdf:resource="http://purl.org/dc/dcmitype/StillImage" />
      </cc:Work>
    </rdf:RDF>
  </metadata>
  <sodipodi:namedview
     pagecolor="#ffffff"
     bordercolor="#666666"
     borderopacity="1"
     objecttolerance="10"
     gridtolerance="10"
     guidetolerance="10"
     inkscape:pageopacity="0"
     inkscape:pageshadow="2"
     inkscape:window-width="1920"
     inkscape:window-height="1057"
     id="namedview27"
     showgrid="false"
     inkscape:zoom="0.820625"
     inkscape:cx="132.2163"
     inkscape:cy="112.71896"
     inkscape:window-x="-8"
     inkscape:window-y="1016"
     inkscape:window-maximized="1"
     inkscape:current-layer="layer1"
     inkscape:pagecheckerboard="0"
     width="799px"
     fit-margin-top="0"
     fit-margin-left="0"
     fit-margin-right="0"
     fit-margin-bottom="0" />
  <defs
     id="defs4">
    <g
       id="Layer1_0_FILL">
      <path
         fill="#000000"
         stroke="none"
         d="m -163.3,-28 q -6.95,-2.5 -14.35,-4 -10.9,-2.2 -22.7,-2.2 -44.9,0 -76.55,31.7 -31.7,31.65 -31.65,76.5 0,44.8 31.65,76.5 v 0.05 q 26.05,25.95 60.9,30.65 4.2,0.55 8.6,0.8 3.45,0.2 7,0.2 3.65,0 7.2,-0.2 0.60117,-0.0338 1.2,-0.1 4.44355,-0.27031 8.75,-0.9 7.13594,-1.04199 13.9,-3 25.4,-7.35 45.5,-27.45 h 0.05 q 31.6,-31.65 31.6,-76.6 0,-44.75 -31.65,-76.4 h -0.05 q -17.65,-17.7 -39.4,-25.55 m 403.65,-3.85 Q 240,-32 239.6,-32 h -386.9 q 3.65,1.85 7.2,4 12.35,7.5 23.3,18.45 v 0.05 q 34.6,34.55 34.6,83.45 0,49.05 -34.55,83.65 -12.45,12.45 -26.7,20.4 -1.92598,1.06172 -3.9,2.05 H 241.6 V 180 q 0,-0.15 0,-0.25 39.4,-2.25 67.95,-30.8 31,-31 31,-75 0,-43.9 -31.05,-74.9 -28.95,-29 -69.15,-30.9 M 6.55,-3.65 H 22 v 59.3 H 6.55 v -24.9 h -4.6 v 24.9 h -15.4 v -59.3 h 15.4 v 21.2 h 4.6 v -21.2 m 21.2,0 h 15.2 V 4.1 h -15.2 v -7.75 m 0,10.7 h 15.2 v 48.6 H 27.75 V 7.05 m 36.1,-6.5 v 7.7 h 4 v 7.65 h -4 v 26 q 0,4.8 0.5,5.35 0.5,0.55 4.1,0.55 v 7.85 H 62.5 q -5.05,0 -7.25,-0.4 Q 53.1,54.8 51.45,53.3 49.8,51.75 49.4,49.85 49,47.85 49,40.6 V 15.9 H 45.8 V 8.25 H 49 v -7.7 h 14.85 m 23.25,5.6 q 5.8,0 9.9,2.5 4.1,2.45 5.45,6.15 1.35,3.75 1.35,10.6 H 89.85 v -5.6 q 0,-2.95 -0.5,-3.95 -0.45,-1.05 -1.75,-1.05 -1.3,0 -1.7,0.9 -0.45,0.9 -0.45,4.1 v 22.9 q 0,2.6 0.65,3.95 0.65,1.25 1.95,1.25 1.5,0 2.05,-1.35 0.5,-1.35 0.5,-5.1 v -5.8 h 13.2 q -0.05,5.85 -0.4,8.75 -0.4,2.9 -2.45,6 -2.1,3 -5.45,4.6 -3.3,1.55 -8.25,1.55 -6.25,0 -9.9,-2.15 -3.65,-2.15 -5.15,-6 -1.55,-3.9 -1.55,-11 V 23.6 q 0,-6.2 1.25,-9.35 1.25,-3.15 5.3,-5.6 4.05,-2.5 9.9,-2.5 m 21.1,-9.8 H 123 V 9.7 q 1.9,-1.75 4.1,-2.65 2.2,-0.9 4.75,-0.9 3.9,0 6.6,2 2.75,2 3.35,4.6 0.6,2.55 0.6,9.4 v 33.5 h -14.8 v -34.2 q 0,-4.25 -0.4,-5.45 -0.45,-1.2 -1.9,-1.2 -1.35,0 -1.85,1.25 -0.45,1.2 -0.45,4.9 v 34.7 h -14.8 v -59.3 m 39.3,0 h 15.2 V 4.1 h -15.2 v -7.75 m 15.2,10.7 v 48.6 H 147.5 V 7.05 h 15.2 m 24.05,0.5 q 2.3,-1.4 5.35,-1.4 3.8,0 6.2,1.8 2.45,1.8 3.1,4.55 0.7,2.7 0.7,9.1 V 55.65 H 187.3 V 22 q 0,-5 -0.3,-6.1 -0.35,-1.1 -1.85,-1.1 -1.55,0 -1.95,1.25 -0.4,1.25 -0.4,6.75 V 55.65 H 168 V 7.05 h 15.05 l -0.25,4.45 q 1.6,-2.65 3.95,-3.95 M -72.85,89.8 h 15.4 V 111 h 4.6 V 89.8 h 15.45 v 59.3 h -15.45 v -24.9 h -4.6 v 24.9 h -15.4 V 89.8 m 73.1,19 q 0.8,3.85 0.8,15.9 v 24.4 h -14.4 v -4.3 q -1.35,2.6 -3.5,3.85 -2.15,1.35 -5.1,1.35 -3.9,0 -7.1,-2.2 -3.25,-2.2 -3.25,-9.55 v -4 q 0,-5.45 1.7,-7.4 1.7,-2 8.55,-4.65 7.25,-2.85 7.8,-3.85 0.5,-0.95 0.5,-4 0,-3.8 -0.55,-4.95 -0.6,-1.15 -1.9,-1.15 -1.5,0 -1.9,0.95 -0.35,0.95 -0.35,5.05 v 5.1 H -32.3 v -3.3 q 0,-5.6 1.3,-8.65 1.3,-3.1 5.2,-5.45 3.9,-2.35 10.2,-2.35 7.5,0 11.3,2.7 3.8,2.65 4.55,6.5 m 31.8,-6.7 q 4.1,2.45 5.45,6.15 1.35,3.75 1.35,10.6 H 24.9 v -5.6 q 0,-2.95 -0.5,-3.95 -0.45,-1.05 -1.75,-1.05 -1.3,0 -1.7,0.9 -0.45,0.9 -0.45,4.1 v 22.9 q 0,2.6 0.65,3.95 0.65,1.25 1.95,1.25 1.5,0 2.05,-1.35 0.5,-1.35 0.5,-5.1 v -5.8 h 13.2 q -0.05,5.85 -0.4,8.75 -0.4,2.9 -2.45,6 -2.1,3 -5.45,4.6 -3.3,1.55 -8.25,1.55 -6.25,0 -9.9,-2.15 -3.65,-2.15 -5.15,-6 -1.55,-3.9 -1.55,-11 v -13.8 q 0,-6.2 1.25,-9.35 1.25,-3.15 5.3,-5.6 4.05,-2.5 9.9,-2.5 5.8,0 9.9,2.5 m 11.2,-12.3 h 14.8 v 24.9 l 4.65,-14.2 h 12.4 l -6,19.4 7.8,29.2 H 62.7 L 58.05,127.95 V 149.1 H 43.25 V 89.8 M 78,114 q 0,-5.85 1.55,-8.6 1.5,-2.75 5.2,-4.25 3.7,-1.55 8.55,-1.55 4.85,0 8.25,1.25 3.35,1.25 5.2,3.25 1.8,2 2.2,3.75 0.35,1.7 0.35,5.35 v 2.85 H 96.2 v -2.65 q 0,-3.35 -0.4,-4.25 -0.4,-0.9 -1.9,-0.9 -1.25,0 -1.9,0.8 -0.6,0.85 -0.6,2.5 0,2.2 0.3,3.25 0.3,1.05 1.9,2.3 1.55,1.25 6.35,3.6 6.45,3.15 8.45,5.95 2.05,2.8 2.05,8.1 0,5.95 -1.55,8.95 -1.55,3 -5.15,4.65 -3.6,1.65 -8.7,1.65 -5.65,0 -9.65,-1.8 -4,-1.75 -5.5,-4.75 -1.5,-3 -1.5,-9.05 v -2.35 h 13.1 v 3.05 q 0,3.95 0.5,5.1 0.5,1.15 1.95,1.15 1.6,0 2.2,-0.75 0.6,-0.8 0.6,-3.35 0,-3.45 -0.8,-4.35 -0.8,-0.85 -8.6,-5.2 -6.5,-3.65 -7.95,-6.6 -1.4,-3 -1.4,-7.1 m 66.7,-12.5 q 2.5,1.8 3.1,4.25 0.65,2.4 0.65,8.2 v 20.45 q 0,6.65 -0.75,9.45 -0.85,2.8 -3.25,4.5 -2.45,1.65 -5.9,1.65 -2.75,0 -5.1,-1.3 -2.35,-1.3 -4.25,-3.8 V 156 h -14.8 v -55.5 h 15.05 l -0.25,4.3 q 1.95,-2.6 4.35,-3.9 2.35,-1.3 5.2,-1.3 3.45,0 5.95,1.9 m 21.85,12.75 v 5.1 H 152.7 v -3.3 q 0,-5.6 1.3,-8.65 1.3,-3.1 5.2,-5.45 3.9,-2.35 10.2,-2.35 7.5,0 11.3,2.7 3.8,2.65 4.55,6.5 0.8,3.85 0.8,15.9 v 24.4 h -14.4 v -4.3 q -1.35,2.6 -3.5,3.85 -2.15,1.35 -5.1,1.35 -3.9,0 -7.1,-2.2 -3.25,-2.2 -3.25,-9.55 v -4 q 0,-5.45 1.7,-7.4 1.7,-2 8.55,-4.65 7.25,-2.85 7.8,-3.85 0.5,-0.95 0.5,-4 0,-3.8 -0.55,-4.95 -0.6,-1.15 -1.9,-1.15 -1.5,0 -1.9,0.95 -0.35,0.95 -0.35,5.05 m 50.5,-12.15 q 4.1,2.45 5.45,6.15 1.35,3.75 1.35,10.6 H 209.9 v -5.6 q 0,-2.95 -0.5,-3.95 -0.45,-1.05 -1.75,-1.05 -1.3,0 -1.7,0.9 -0.45,0.9 -0.45,4.1 v 22.9 q 0,2.6 0.65,3.95 0.65,1.25 1.95,1.25 1.5,0 2.05,-1.35 0.5,-1.35 0.5,-5.1 v -5.8 h 13.2 q -0.05,5.85 -0.4,8.75 -0.4,2.9 -2.45,6 -2.1,3 -5.45,4.6 -3.3,1.55 -8.25,1.55 -6.25,0 -9.9,-2.15 -3.65,-2.15 -5.15,-6 -1.55,-3.9 -1.55,-11 v -13.8 q 0,-6.2 1.25,-9.35 1.25,-3.15 5.3,-5.6 4.05,-2.5 9.9,-2.5 5.8,0 9.9,2.5 m 12.45,5.15 q 1.75,-3.7 5.65,-5.65 3.95,-2 9,-2 6.25,0 10.3,2.4 4.05,2.35 5.7,6.25 1.6,3.9 1.6,10.95 v 6.45 H 242.6 v 10.5 q 0,3.3 0.45,4.25 0.5,0.95 1.85,0.95 1.7,0 2.25,-1.2 0.55,-1.3 0.55,-4.95 v -6.4 h 14.05 v 3.6 q 0,4.5 -0.55,6.9 -0.6,2.45 -2.7,5.2 -2.05,2.75 -5.25,4.1 -3.2,1.4 -8.05,1.4 -4.7,0 -8.3,-1.4 -3.55,-1.35 -5.55,-3.65 -2,-2.4 -2.8,-5.2 -0.75,-2.9 -0.75,-8.3 V 117.3 q 0,-6.4 1.7,-10.05 m 13.1,6.95 v 3.55 h 4.3 v -3.55 q 0,-3.75 -0.4,-4.85 -0.4,-1.1 -1.65,-1.1 -1.55,0 -1.9,0.95 -0.35,0.9 -0.35,5 M 171.25,136 v -10 q -3.55,2.6 -4.1,4.35 -0.6,1.75 -0.6,5.05 0,3.8 0.5,4.85 0.5,1.1 1.95,1.1 1.4,0 1.85,-0.8 0.4,-0.9 0.4,-4.55 M 129.6,109.35 q -0.4,1.1 -0.4,5.3 v 20.15 q 0,4.4 0.4,5.45 0.45,1.1 1.95,1.1 1.4,0 1.75,-0.95 0.35,-1.05 0.35,-4.9 v -20.85 q 0,-4.5 -0.35,-5.45 -0.3,-0.95 -1.8,-0.95 -1.5,0 -1.9,1.1 M -13.75,136 v -10 q -3.55,2.6 -4.1,4.35 -0.6,1.75 -0.6,5.05 0,3.8 0.5,4.85 0.5,1.1 1.95,1.1 1.4,0 1.85,-0.8 0.4,-0.9 0.4,-4.55 z"
         id="path7" />
      <path
         fill="#ffffff"
         stroke="none"
         d="m 235.15,101.6 q -3.9,1.95 -5.65,5.65 -1.7,3.65 -1.7,10.05 v 14.15 q 0,5.4 0.75,8.3 0.8,2.8 2.8,5.2 2,2.3 5.55,3.65 3.6,1.4 8.3,1.4 4.85,0 8.05,-1.4 3.2,-1.35 5.25,-4.1 2.1,-2.75 2.7,-5.2 0.55,-2.4 0.55,-6.9 v -3.6 H 247.7 v 6.4 q 0,3.65 -0.55,4.95 -0.55,1.2 -2.25,1.2 -1.35,0 -1.85,-0.95 -0.45,-0.95 -0.45,-4.25 v -10.5 h 19.15 v -6.45 q 0,-7.05 -1.6,-10.95 -1.65,-3.9 -5.7,-6.25 -4.05,-2.4 -10.3,-2.4 -5.05,0 -9,2 m 7.45,16.15 v -3.55 q 0,-4.1 0.35,-5 0.35,-0.95 1.9,-0.95 1.25,0 1.65,1.1 0.4,1.1 0.4,4.85 v 3.55 h -4.3 m -20.1,-9.5 q -1.35,-3.7 -5.45,-6.15 -4.1,-2.5 -9.9,-2.5 -5.85,0 -9.9,2.5 -4.05,2.45 -5.3,5.6 -1.25,3.15 -1.25,9.35 v 13.8 q 0,7.1 1.55,11 1.5,3.85 5.15,6 3.65,2.15 9.9,2.15 4.95,0 8.25,-1.55 3.35,-1.6 5.45,-4.6 2.05,-3.1 2.45,-6 0.35,-2.9 0.4,-8.75 h -13.2 v 5.8 q 0,3.75 -0.5,5.1 -0.55,1.35 -2.05,1.35 -1.3,0 -1.95,-1.25 -0.65,-1.35 -0.65,-3.95 v -22.9 q 0,-3.2 0.45,-4.1 0.4,-0.9 1.7,-0.9 1.3,0 1.75,1.05 0.5,1 0.5,3.95 v 5.6 h 13.95 q 0,-6.85 -1.35,-10.6 m -55.95,11.1 v -5.1 q 0,-4.1 0.35,-5.05 0.4,-0.95 1.9,-0.95 1.3,0 1.9,1.15 0.55,1.15 0.55,4.95 0,3.05 -0.5,4 -0.55,1 -7.8,3.85 -6.85,2.65 -8.55,4.65 -1.7,1.95 -1.7,7.4 v 4 q 0,7.35 3.25,9.55 3.2,2.2 7.1,2.2 2.95,0 5.1,-1.35 2.15,-1.25 3.5,-3.85 v 4.3 h 14.4 v -24.4 q 0,-12.05 -0.8,-15.9 -0.75,-3.85 -4.55,-6.5 -3.8,-2.7 -11.3,-2.7 -6.3,0 -10.2,2.35 -3.9,2.35 -5.2,5.45 -1.3,3.05 -1.3,8.65 v 3.3 h 13.85 m 4.7,6.65 v 10 q 0,3.65 -0.4,4.55 -0.45,0.8 -1.85,0.8 -1.45,0 -1.95,-1.1 -0.5,-1.05 -0.5,-4.85 0,-3.3 0.6,-5.05 0.55,-1.75 4.1,-4.35 M 147.8,105.75 q -0.6,-2.45 -3.1,-4.25 -2.5,-1.9 -5.95,-1.9 -2.85,0 -5.2,1.3 -2.4,1.3 -4.35,3.9 l 0.25,-4.3 H 114.4 V 156 h 14.8 v -11.1 q 1.9,2.5 4.25,3.8 2.35,1.3 5.1,1.3 3.45,0 5.9,-1.65 2.4,-1.7 3.25,-4.5 0.75,-2.8 0.75,-9.45 v -20.45 q 0,-5.8 -0.65,-8.2 m -18.6,8.9 q 0,-4.2 0.4,-5.3 0.4,-1.1 1.9,-1.1 1.5,0 1.8,0.95 0.35,0.95 0.35,5.45 v 20.85 q 0,3.85 -0.35,4.9 -0.35,0.95 -1.75,0.95 -1.5,0 -1.95,-1.1 -0.4,-1.05 -0.4,-5.45 V 114.65 M 79.55,105.4 Q 78,108.15 78,114 q 0,4.1 1.4,7.1 1.45,2.95 7.95,6.6 7.8,4.35 8.6,5.2 0.8,0.9 0.8,4.35 0,2.55 -0.6,3.35 -0.6,0.75 -2.2,0.75 -1.45,0 -1.95,-1.15 -0.5,-1.15 -0.5,-5.1 v -3.05 H 78.4 v 2.35 q 0,6.05 1.5,9.05 1.5,3 5.5,4.75 4,1.8 9.65,1.8 5.1,0 8.7,-1.65 3.6,-1.65 5.15,-4.65 1.55,-3 1.55,-8.95 0,-5.3 -2.05,-8.1 -2,-2.8 -8.45,-5.95 -4.8,-2.35 -6.35,-3.6 -1.6,-1.25 -1.9,-2.3 -0.3,-1.05 -0.3,-3.25 0,-1.65 0.6,-2.5 0.65,-0.8 1.9,-0.8 1.5,0 1.9,0.9 0.4,0.9 0.4,4.25 v 2.65 h 13.1 v -2.85 q 0,-3.65 -0.35,-5.35 -0.4,-1.75 -2.2,-3.75 -1.85,-2 -5.2,-3.25 -3.4,-1.25 -8.25,-1.25 -4.85,0 -8.55,1.55 -3.7,1.5 -5.2,4.25 M 58.05,89.8 h -14.8 v 59.3 h 14.8 v -21.15 l 4.65,21.15 h 14.2 l -7.8,-29.2 6,-19.4 H 62.7 l -4.65,14.2 V 89.8 M 37.5,108.25 q -1.35,-3.7 -5.45,-6.15 -4.1,-2.5 -9.9,-2.5 -5.85,0 -9.9,2.5 -4.05,2.45 -5.3,5.6 -1.25,3.15 -1.25,9.35 v 13.8 q 0,7.1 1.55,11 1.5,3.85 5.15,6 3.65,2.15 9.9,2.15 4.95,0 8.25,-1.55 3.35,-1.6 5.45,-4.6 2.05,-3.1 2.45,-6 0.35,-2.9 0.4,-8.75 h -13.2 v 5.8 q 0,3.75 -0.5,5.1 -0.55,1.35 -2.05,1.35 -1.3,0 -1.95,-1.25 -0.65,-1.35 -0.65,-3.95 v -22.9 q 0,-3.2 0.45,-4.1 0.4,-0.9 1.7,-0.9 1.3,0 1.75,1.05 0.5,1 0.5,3.95 v 5.6 h 13.95 q 0,-6.85 -1.35,-10.6 M 1.05,124.7 q 0,-12.05 -0.8,-15.9 -0.75,-3.85 -4.55,-6.5 -3.8,-2.7 -11.3,-2.7 -6.3,0 -10.2,2.35 -3.9,2.35 -5.2,5.45 -1.3,3.05 -1.3,8.65 v 3.3 h 13.85 v -5.1 q 0,-4.1 0.35,-5.05 0.4,-0.95 1.9,-0.95 1.3,0 1.9,1.15 0.55,1.15 0.55,4.95 0,3.05 -0.5,4 -0.55,1 -7.8,3.85 -6.85,2.65 -8.55,4.65 -1.7,1.95 -1.7,7.4 v 4 q 0,7.35 3.25,9.55 3.2,2.2 7.1,2.2 2.95,0 5.1,-1.35 2.15,-1.25 3.5,-3.85 v 4.3 h 14.4 v -24.4 m -14.8,1.3 v 10 q 0,3.65 -0.4,4.55 -0.45,0.8 -1.85,0.8 -1.45,0 -1.95,-1.1 -0.5,-1.05 -0.5,-4.85 0,-3.3 0.6,-5.05 0.55,-1.75 4.1,-4.35 m -43.7,-36.2 h -15.4 v 59.3 h 15.4 v -24.9 h 4.6 v 24.9 H -37.4 V 89.8 H -52.85 V 111 h -4.6 V 89.8 M 192.1,6.15 q -3.05,0 -5.35,1.4 -2.35,1.3 -3.95,3.95 l 0.25,-4.45 H 168 v 48.6 h 14.8 V 22.8 q 0,-5.5 0.4,-6.75 0.4,-1.25 1.95,-1.25 1.5,0 1.85,1.1 0.3,1.1 0.3,6.1 v 33.65 h 14.8 V 21.6 q 0,-6.4 -0.7,-9.1 -0.65,-2.75 -3.1,-4.55 -2.4,-1.8 -6.2,-1.8 m -29.4,49.5 V 7.05 h -15.2 v 48.6 h 15.2 m 0,-59.3 H 147.5 V 4.1 h 15.2 v -7.75 m -39.7,0 h -14.8 v 59.3 H 123 v -34.7 q 0,-3.7 0.45,-4.9 0.5,-1.25 1.85,-1.25 1.45,0 1.9,1.2 0.4,1.2 0.4,5.45 v 34.2 h 14.8 v -33.5 q 0,-6.85 -0.6,-9.4 -0.6,-2.6 -3.35,-4.6 -2.7,-2 -6.6,-2 -2.55,0 -4.75,0.9 -2.2,0.9 -4.1,2.65 V -3.65 M 97,8.65 q -4.1,-2.5 -9.9,-2.5 -5.85,0 -9.9,2.5 -4.05,2.45 -5.3,5.6 -1.25,3.15 -1.25,9.35 v 13.8 q 0,7.1 1.55,11 1.5,3.85 5.15,6 3.65,2.15 9.9,2.15 4.95,0 8.25,-1.55 3.35,-1.6 5.45,-4.6 2.05,-3.1 2.45,-6 0.35,-2.9 0.4,-8.75 H 90.6 v 5.8 q 0,3.75 -0.5,5.1 -0.55,1.35 -2.05,1.35 -1.3,0 -1.95,-1.25 Q 85.45,45.3 85.45,42.7 V 19.8 q 0,-3.2 0.45,-4.1 0.4,-0.9 1.7,-0.9 1.3,0 1.75,1.05 0.5,1 0.5,3.95 v 5.6 h 13.95 q 0,-6.85 -1.35,-10.6 Q 101.1,11.1 97,8.65 M 63.85,8.25 V 0.55 H 49 v 7.7 H 45.8 V 15.9 H 49 v 24.7 q 0,7.25 0.4,9.25 0.4,1.9 2.05,3.45 1.65,1.5 3.8,1.95 2.2,0.4 7.25,0.4 h 5.95 V 47.8 q -3.6,0 -4.1,-0.55 -0.5,-0.55 -0.5,-5.35 v -26 h 4 V 8.25 h -4 m -20.9,-1.2 h -15.2 v 48.6 h 15.2 V 7.05 m 0,-10.7 H 27.75 V 4.1 h 15.2 V -3.65 M 22,-3.65 H 6.55 v 21.2 h -4.6 v -21.2 h -15.4 v 59.3 h 15.4 v -24.9 h 4.6 v 24.9 H 22 Z"
         id="path9" />
    </g>
    <g
       id="Layer0_0_FILL">
      <path
         fill="#ffffff"
         stroke="none"
         d="m -100.4,73.95 q 0,-41.4 -29.3,-70.65 -29.25,-29.3 -70.65,-29.3 -41.5,0 -70.75,29.25 -29.3,29.3 -29.25,70.75 0,41.4 29.25,70.7 29.3,29.25 70.7,29.25 41.45,0.05 70.75,-29.25 29.25,-29.25 29.25,-70.75 m -40,-24.9 24.95,24.95 -40,40 -24.95,-24.95 10,-10.05 -5,-5 -24.95,25 5,5 10.5,-10.5 24.95,24.95 -40.45,40.45 -24.95,-24.95 4.95,-4.95 -35,-35 -4.95,4.95 -25,-25 40.45,-40.45 25,25 -10.5,10.5 5,5 24.95,-25 -5,-5 -10,10.05 -25,-25 40,-40 25,25 -5,5 35,35 z"
         id="path12" />
      <path
         fill="#000000"
         stroke="none"
         d="m -115.45,74 -24.95,-24.95 -5,5 -35,-35 5,-5 -25,-25 -40,40 25,25 10,-10.05 5,5 -24.95,25 -5,-5 10.5,-10.5 -25,-25 -40.45,40.45 25,25 4.95,-4.95 35,35 -4.95,4.95 24.95,24.95 40.45,-40.45 -24.95,-24.95 -10.5,10.5 -5,-5 24.95,-25 5,5 -10,10.05 24.95,24.95 z"
         id="path14" />
    </g>
    <path
       id="Layer0_0_1_STROKES"
       stroke="#000000"
       stroke-width="12"
       stroke-linejoin="round"
       stroke-linecap="round"
       fill="none"
       d="m -129.7,3.3 q 29.3,29.25 29.3,70.65 0,41.5 -29.25,70.75 -29.3,29.3 -70.75,29.25 -41.4,0 -70.7,-29.25 -29.25,-29.3 -29.25,-70.7 -0.05,-41.45 29.25,-70.75 29.25,-29.25 70.75,-29.25 41.4,0 70.65,29.3 z" />
  </defs>
  <g
     inkscape:groupmode="layer"
     id="layer1"
     inkscape:label="Layer 1"
     style="display:inline"
     transform="translate(-108.93472,-6.8576736)">
    <circle
       style="fill:#ffffff;fill-opacity:1;fill-rule:evenodd;stroke-width:1.13861"
       id="path363-1"
       cx="662.52777"
       cy="125.41436"
       r="118.55669" />
    <circle
       style="fill:#ffffff;fill-opacity:1;fill-rule:evenodd;stroke-width:1.13861"
       id="path363"
       cx="227.49141"
       cy="125.42955"
       r="118.55669" />
    <rect
       style="fill:#ffffff;fill-opacity:1;stroke-width:1.83332"
       id="rect2142"
       width="439.47211"
       height="237.07529"
       x="226.02126"
       y="6.8653984" />
  </g>
  <g
     inkscape:groupmode="layer"
     id="layer2"
     inkscape:label="Layer 2"
     style="display:inline"
     sodipodi:insensitive="true"
     transform="translate(-108.93472,-6.8576736)">
    <g
       transform="translate(427.29901,51.773197)"
       id="g17">
      <use
         xlink:href="#Layer1_0_FILL"
         id="use19"
         x="0"
         y="0"
         width="100%"
         height="100%" />
    </g>
    <g
       transform="translate(427.29901,51.773197)"
       id="g21">
      <use
         xlink:href="#Layer0_0_FILL"
         id="use23"
         x="0"
         y="0"
         width="100%"
         height="100%" />
      <use
         xlink:href="#Layer0_0_1_STROKES"
         id="use25"
         x="0"
         y="0"
         width="100%"
         height="100%" />
    </g>
  </g>
  <g
     inkscape:groupmode="layer"
     id="layer3"
     inkscape:label="Layer 3"
     style="display:none"
     transform="translate(-108.93472,-6.8576736)" />
</svg>
